<?xml version="1.0" encoding="utf-8"?>
<!-- Generator: Adobe Illustrator 21.0.2, SVG Export Plug-In . SVG Version: 6.00 Build 0)  -->
<svg version="1.1" id="Layer_1" xmlns="http://www.w3.org/2000/svg" xmlns:xlink="http://www.w3.org/1999/xlink" x="0px" y="0px"
	 viewBox="0 0 18.3 22.9" enable-background="new 0 0 18.3 22.9" xml:space="preserve">
<path fill-rule="evenodd" clip-rule="evenodd" fill="#376EB5" d="M15.3,0.8l0.3-0.3c0.5-0.6,1.4-0.6,1.9,0L18,1.2
	c0.5,0.6,0.5,1.7,0,2.3l-0.3,0.3L15.3,0.8z M14.9,1.3l0.8,1L8,11.9l-0.4,1.5l1.2-0.5l7.6-9.5l0.8,1l-8,10.1l-3.2,1l1.2-4.5L14.9,1.3
	z M0,3.9h12l-0.8,1H0.8v17h13.6v-13l0.8-1v15H0V3.9z"/>
</svg>
